<?xml version="1.0" encoding="UTF-8"?>
<svg id="Ebene_2" data-name="Ebene 2" xmlns="http://www.w3.org/2000/svg" viewBox="0 0 315.58 49.47">
  <defs>
    <style>
      .cls-1 {
        fill: #fff;
      }
    </style>
  </defs>
  <g id="Ebene_1-2" data-name="Ebene 1">
    <g>
      <path class="cls-1" d="m50.76.72v11.31H14.62v9.07h34.35v11.02H14.62v16.63H0V.72h50.76Z"/>
      <path class="cls-1" d="m68.4.72v22.11c.14,7.56.14,7.63.5,9.58.79,3.82,3.6,4.61,16.06,4.61,10.08,0,13.1-.43,14.69-2.16,1.15-1.22,1.51-2.52,1.73-7.06.07-1.66.14-3.96.14-4.97V.72h14.62v22.11c-.22,10.87-.29,11.67-.72,15.05-.79,5.47-4.46,9.29-9.94,10.44-4.32.86-9.15,1.15-20.31,1.15-18.36,0-24.12-1.01-27.72-4.82-2.38-2.45-3.17-5.4-3.53-12.46q-.07-1.58-.14-9.36V.72h14.62Z"/>
      <path class="cls-1" d="m182.96,30.24c.07,2.74.14,3.82.14,4.54,0,7.78-2.02,11.31-7.34,13.03-3.89,1.22-9.14,1.66-19.8,1.66-18.79,0-24.84-.58-28.73-2.81-3.17-1.8-4.61-4.46-5.18-9.36-.22-2.16-.36-6.12-.36-12.24,0-10.73.29-14.69,1.37-17.35,2.59-6.48,7.85-7.7,32.98-7.7,12.82,0,17.28.5,20.59,2.23,4.1,2.09,5.54,5.62,5.54,13.32v2.38h-14.62c-.14-3.17-.29-3.82-1.15-4.54-1.08-.94-5.33-1.37-14.55-1.37s-11.81.29-13.25,1.44c-1.73,1.44-2.3,4.25-2.3,11.52,0,12.31.22,12.46,15.62,12.46s16.27-.07,16.35-7.2h14.69Z"/>
      <path class="cls-1" d="m203.4.72v17.21h33.05V.72h15.34v48.03h-15.34v-17.35h-33.05v17.35h-15.34V.72h15.34Z"/>
      <path class="cls-1" d="m271.01,32.83c0,2.88.29,3.82,1.44,4.54,1.37.86,2.95,1.01,13.25,1.01q15.7,0,15.7-4.25c0-2.88-1.08-3.6-5.76-3.67l-11.52-.43-7.78-.36-3.89-.14c-11.88-.36-15.19-3.38-15.19-13.97,0-9.15,2.59-13.25,9.22-14.69,2.81-.58,9.43-.86,20.95-.86,13.97,0,19.01.65,22.39,2.95,2.88,1.94,4.03,4.97,4.03,10.66,0,.29,0,1.3-.07,2.23h-14.11c-.14-2.66-.36-3.31-1.44-3.96-1.22-.72-3.02-.86-13.39-.86-12.39,0-13.39.29-13.39,3.82,0,1.8.65,2.74,2.16,3.1,1.3.36,5.26.58,15.41.86,15.84.5,18.94.86,22.03,2.81,3.31,2.16,4.54,5.4,4.54,12.1,0,8.35-2.02,12.46-6.98,14.33-2.88,1.08-8.93,1.44-23.26,1.44s-20.74-.65-24.12-2.81c-3.31-2.09-4.39-4.9-4.39-11.52v-2.3h14.19Z"/>
    </g>
  </g>
</svg>